<svg width="31" height="31" viewBox="0 0 31 31" fill="none" xmlns="http://www.w3.org/2000/svg">
<path d="M30.5 14C27.8962 7.91783 23.0355 3.08222 16.94 0.509981C16.6945 0.41834 16.4228 0.426729 16.1834 0.533327C15.9441 0.639924 15.7561 0.836219 15.66 1.07999C15.6076 1.20197 15.58 1.33317 15.5789 1.46591C15.5777 1.59866 15.603 1.7303 15.6533 1.85317C15.7036 1.97603 15.7778 2.08767 15.8716 2.18155C15.9655 2.27543 16.0771 2.34968 16.2 2.39998C21.8188 4.77381 26.2992 9.23264 28.7 14.84C28.8073 15.0778 29.0033 15.2642 29.2462 15.3595C29.4891 15.4548 29.7596 15.4514 30 15.35C30.1231 15.2961 30.234 15.218 30.3263 15.1202C30.4185 15.0225 30.4901 14.9072 30.5368 14.7812C30.5835 14.6552 30.6042 14.5211 30.5979 14.3868C30.5916 14.2526 30.5583 14.1211 30.5 14Z" fill="white"/>
<path d="M15.68 7.79999C19.0858 9.23457 21.8029 11.9337 23.26 15.33C23.3374 15.4975 23.4596 15.6404 23.6132 15.7428C23.7667 15.8451 23.9456 15.903 24.13 15.91C24.265 15.909 24.3982 15.8782 24.52 15.82C24.75 15.7073 24.9279 15.5107 25.0172 15.2707C25.1065 15.0307 25.1004 14.7656 25 14.53C23.3484 10.674 20.2655 7.60907 16.4 5.97998C16.162 5.89548 15.9008 5.90419 15.6689 6.00436C15.437 6.10453 15.2516 6.28875 15.15 6.51999C15.056 6.76049 15.0586 7.02804 15.1574 7.26663C15.2562 7.50522 15.4435 7.69634 15.68 7.79999Z" fill="white"/>
<path d="M25.31 19.68C25.0931 19.4266 24.824 19.2232 24.521 19.0837C24.2181 18.9442 23.8885 18.872 23.555 18.872C23.2215 18.872 22.8919 18.9442 22.5889 19.0837C22.286 19.2232 22.0168 19.4266 21.8 19.68C20.98 20.49 20.16 21.31 19.35 22.14C19.314 22.1934 19.2675 22.239 19.2135 22.2741C19.1595 22.3092 19.0989 22.3331 19.0355 22.3443C18.972 22.3555 18.9069 22.3538 18.8441 22.3393C18.7813 22.3248 18.7221 22.2978 18.67 22.26C18.14 21.97 17.57 21.74 17.06 21.42C14.7197 19.9032 12.6452 18.0112 10.92 15.82C10.0192 14.7581 9.27501 13.5727 8.70998 12.3C8.64854 12.1945 8.62784 12.0701 8.65178 11.9503C8.67573 11.8306 8.74268 11.7238 8.83999 11.65C9.65999 10.85 10.46 10.04 11.27 9.21999C11.5343 9.0004 11.7471 8.72528 11.8931 8.41418C12.0391 8.10309 12.1148 7.76364 12.1148 7.41998C12.1148 7.07632 12.0391 6.73689 11.8931 6.4258C11.7471 6.1147 11.5343 5.83957 11.27 5.61998C10.63 4.96998 9.98999 4.33999 9.33999 3.68999L7.33999 1.68999C7.11509 1.44904 6.84461 1.25513 6.54421 1.11952C6.2438 0.983911 5.91945 0.909283 5.58999 0.899979C5.2584 0.910908 4.93223 0.987212 4.63021 1.1245C4.32818 1.26178 4.05624 1.45735 3.82998 1.69998C2.99998 2.50998 2.20997 3.34998 1.35997 4.14998C0.611634 4.85577 0.163982 5.82274 0.10999 6.84999C0.0387537 8.5347 0.339199 10.2144 0.989995 11.77C2.23727 15.0037 4.03365 17.9977 6.29998 20.62C9.28048 24.2019 12.9938 27.1037 17.19 29.13C19.0515 30.1135 21.0921 30.7121 23.19 30.89H23.58C24.2204 30.9171 24.8589 30.801 25.4488 30.5502C26.0387 30.2993 26.5652 29.92 26.99 29.44C27.69 28.65 28.48 27.93 29.23 27.18C29.4894 26.9594 29.6976 26.685 29.8405 26.376C29.9834 26.0669 30.0574 25.7305 30.0574 25.39C30.0574 25.0495 29.9834 24.7131 29.8405 24.404C29.6976 24.0949 29.4894 23.8206 29.23 23.6C27.9367 22.2933 26.63 20.9866 25.31 19.68ZM27.83 25.79L27.08 26.53C26.56 27.03 26.03 27.53 25.51 28.12C25.2759 28.3922 24.981 28.6055 24.6492 28.7427C24.3174 28.88 23.958 28.9373 23.6 28.91H23.32C21.4805 28.7512 19.6917 28.2241 18.06 27.36C14.1234 25.4455 10.6369 22.719 7.82998 19.36C5.69626 16.9179 4.0043 14.1228 2.82998 11.1C2.28162 9.81887 2.02217 8.4327 2.07 7.03998C2.09289 6.50488 2.32227 5.9995 2.70998 5.62999C3.22998 5.12999 3.70998 4.62998 4.23998 4.11998L5.23998 3.11998C5.27273 3.05235 5.32389 2.99532 5.38756 2.95541C5.45123 2.91551 5.52485 2.89435 5.6 2.89435C5.67514 2.89435 5.74876 2.91551 5.81243 2.95541C5.8761 2.99532 5.92723 3.05235 5.95998 3.11998C6.39998 3.54998 6.83 3.98998 7.26 4.42998L7.92 5.08998L8.92 6.08998L9.86998 7.03998C10.24 7.40998 10.22 7.47999 9.86998 7.81999L9.52999 8.15999C8.84999 8.85999 8.15999 9.53999 7.43999 10.24C7.06399 10.5971 6.80889 11.0628 6.71029 11.5719C6.61169 12.0811 6.67452 12.6083 6.89 13.08C7.52114 14.5295 8.36363 15.8775 9.39 17.08C11.2589 19.431 13.5022 21.4581 16.03 23.08C16.42 23.32 16.82 23.52 17.17 23.69L17.71 23.96C18.0919 24.1855 18.5265 24.3062 18.97 24.31C19.3153 24.3082 19.6565 24.2344 19.9716 24.0932C20.2867 23.952 20.5688 23.7465 20.8 23.49C21.59 22.68 22.39 21.89 23.23 21.06C23.3155 20.9486 23.4348 20.8679 23.57 20.83C23.7098 20.8637 23.8335 20.945 23.92 21.06C25.2533 22.3933 26.5867 23.7033 27.92 24.99C28.15 25.34 28.18 25.43 27.83 25.79Z" fill="white"/>
</svg>
