<svg width="33" height="24" viewBox="0 0 33 24" fill="none" xmlns="http://www.w3.org/2000/svg">
<path d="M28.67 0.910034H4.66998C3.60912 0.910034 2.5917 1.33146 1.84155 2.0816C1.09141 2.83175 0.669983 3.84917 0.669983 4.91003V19.91C0.669983 20.9709 1.09141 21.9883 1.84155 22.7385C2.5917 23.4886 3.60912 23.91 4.66998 23.91H28.67C29.7308 23.91 30.7483 23.4886 31.4984 22.7385C32.2486 21.9883 32.67 20.9709 32.67 19.91V4.91003C32.67 3.84917 32.2486 2.83175 31.4984 2.0816C30.7483 1.33146 29.7308 0.910034 28.67 0.910034ZM10.37 15.62L6.36998 19.62C6.17491 19.7545 5.93846 19.8153 5.70274 19.7916C5.46702 19.768 5.24734 19.6615 5.08286 19.491C4.91837 19.3205 4.81976 19.0971 4.80458 18.8607C4.7894 18.6243 4.85865 18.3902 4.99998 18.2L8.99998 14.2C9.18735 14.0138 9.4408 13.9092 9.70499 13.9092C9.96917 13.9092 10.2226 14.0138 10.41 14.2C10.5011 14.2956 10.5725 14.4083 10.6198 14.5316C10.6672 14.6549 10.6897 14.7863 10.6859 14.9184C10.6822 15.0504 10.6524 15.1804 10.5982 15.3008C10.5439 15.4212 10.4664 15.5297 10.37 15.62ZM16.67 16.91C16.4363 16.9105 16.2099 16.8291 16.03 16.68L5.02998 7.68002C4.91942 7.59986 4.82644 7.4979 4.75679 7.38043C4.68714 7.26296 4.64229 7.13248 4.625 6.99701C4.60771 6.86154 4.61836 6.72397 4.65628 6.59277C4.6942 6.46158 4.75857 6.33955 4.84546 6.23419C4.93235 6.12883 5.03989 6.0424 5.16147 5.98019C5.28304 5.91799 5.41607 5.88135 5.55235 5.87253C5.68863 5.86371 5.82528 5.88288 5.95386 5.92889C6.08244 5.9749 6.20024 6.04677 6.29999 6.14005L16.67 14.62L27 6.14005C27.1017 6.05641 27.2188 5.99368 27.3448 5.95544C27.4708 5.91721 27.6031 5.9042 27.7341 5.91721C27.8651 5.93021 27.9922 5.96896 28.1082 6.03122C28.2242 6.09348 28.3267 6.17804 28.41 6.28003C28.5758 6.48478 28.6541 6.74668 28.6278 7.00882C28.6016 7.27096 28.473 7.51216 28.27 7.68002L17.27 16.68C17.1007 16.8206 16.8898 16.9015 16.67 16.91ZM28.37 19.62C28.1826 19.8063 27.9292 19.9108 27.665 19.9108C27.4008 19.9108 27.1474 19.8063 26.96 19.62L22.96 15.62C22.8663 15.5271 22.7919 15.4165 22.7411 15.2946C22.6903 15.1728 22.6642 15.042 22.6642 14.91C22.6642 14.778 22.6903 14.6473 22.7411 14.5255C22.7919 14.4036 22.8663 14.293 22.96 14.2C23.1474 14.0138 23.4008 13.9092 23.665 13.9092C23.9292 13.9092 24.1826 14.0138 24.37 14.2L28.37 18.2C28.4637 18.293 28.5381 18.4036 28.5889 18.5255C28.6397 18.6473 28.6658 18.778 28.6658 18.91C28.6658 19.042 28.6397 19.1728 28.5889 19.2946C28.5381 19.4165 28.4637 19.5271 28.37 19.62Z" fill="white"/>
</svg>
