<svg width="22" height="20" viewBox="0 0 22 20" fill="none" xmlns="http://www.w3.org/2000/svg">
<path fill-rule="evenodd" clip-rule="evenodd" d="M16.4635 0.373728C15.3214 0.249985 13.8818 0.249992 12.0452 0.25H9.95475C8.11821 0.249992 6.67861 0.249985 5.53648 0.373728C4.37094 0.500006 3.42656 0.762324 2.62024 1.34815C2.13209 1.70281 1.70281 2.13209 1.34815 2.62024C1.18647 2.84277 1.04801 3.07781 0.929871 3.32797C0.568084 4.09404 0.406711 4.98237 0.328065 6.04168C0.249995 7.09323 0.249998 8.38224 0.25 9.97156V10.0452C0.249992 11.8818 0.249985 13.3214 0.373728 14.4635C0.500006 15.6291 0.762324 16.5734 1.34815 17.3798C1.70281 17.8679 2.13209 18.2972 2.62024 18.6518C3.42656 19.2377 4.37094 19.5 5.53648 19.6263C6.67859 19.75 8.11817 19.75 9.95465 19.75H12.0453C13.8818 19.75 15.3214 19.75 16.4635 19.6263C17.6291 19.5 18.5734 19.2377 19.3798 18.6518C19.8679 18.2972 20.2972 17.8679 20.6518 17.3798C21.2377 16.5734 21.5 15.6291 21.6263 14.4635C21.75 13.3214 21.75 11.8818 21.75 10.0453V9.9709C21.75 8.37073 21.75 7.07486 21.6702 6.01904C21.5899 4.95506 21.4248 4.06379 21.0546 3.29546C20.9399 3.05734 20.8065 2.83304 20.6518 2.62024C20.2972 2.13209 19.8679 1.70281 19.3798 1.34815C18.5734 0.762324 17.6291 0.500006 16.4635 0.373728ZM3.50191 2.56168C4.00992 2.19259 4.66013 1.97745 5.69804 1.865C6.74999 1.75103 8.10843 1.75 10 1.75H12C13.8916 1.75 15.25 1.75103 16.302 1.865C17.3399 1.97745 17.9901 2.19259 18.4981 2.56168C18.8587 2.82369 19.1759 3.14081 19.4379 3.50139L17.5407 5.39861C15.8591 7.08026 14.6501 8.28703 13.6072 9.08267C12.5817 9.8651 11.8056 10.1789 11 10.1789C10.1944 10.1789 9.41825 9.8651 8.39275 9.08267C7.34994 8.28703 6.14092 7.08026 4.45926 5.3986L2.56205 3.50139C2.82412 3.14081 3.14128 2.82369 3.50191 2.56168ZM20.0373 5.02337C20.0977 5.34361 20.1425 5.70891 20.1745 6.13204C20.2495 7.12493 20.25 8.36482 20.25 10C20.25 11.8916 20.249 13.25 20.135 14.302C20.0225 15.3399 19.8074 15.9901 19.4383 16.4981C19.1762 16.8589 18.8589 17.1762 18.4981 17.4383C17.9901 17.8074 17.3399 18.0225 16.302 18.135C15.25 18.249 13.8916 18.25 12 18.25H10C8.10843 18.25 6.74999 18.249 5.69804 18.135C4.66013 18.0225 4.00992 17.8074 3.50191 17.4383C3.14111 17.1762 2.82382 16.8589 2.56168 16.4981C2.19259 15.9901 1.97745 15.3399 1.865 14.302C1.75103 13.25 1.75 11.8916 1.75 10C1.75 8.37645 1.75047 7.14244 1.82395 6.15274C1.85601 5.72084 1.90131 5.34885 1.96271 5.02337L3.43917 6.49983C5.07144 8.13212 6.35062 9.41131 7.48288 10.2752C8.64181 11.1594 9.73455 11.6789 11 11.6789C12.2655 11.6789 13.3582 11.1594 14.5171 10.2752C15.6494 9.41132 16.9285 8.13213 18.5608 6.49986L20.0373 5.02337Z" fill="white"/>
</svg>
