<svg width="255" height="255" viewBox="0 0 255 255" fill="none" xmlns="http://www.w3.org/2000/svg">
<path d="M124.476 27.0482C124.212 25.9958 124.203 24.8956 124.449 23.8388C124.695 22.782 125.189 21.7989 125.89 20.9711C126.592 20.1433 127.48 19.4945 128.482 19.0784C129.485 18.6623 130.571 18.491 131.653 18.5786C187.853 23.0957 232.05 70.125 232.05 127.5C232.05 187.862 183.126 236.786 122.764 236.786C103.627 236.793 84.823 231.773 68.2357 222.228C51.6485 212.683 37.8598 198.948 28.2504 182.398C27.7155 181.48 27.4021 180.451 27.3349 179.391C27.2676 178.331 27.4485 177.27 27.8632 176.292C28.2778 175.314 28.9148 174.446 29.7234 173.758C30.5321 173.069 31.4902 172.579 32.5216 172.325C47.0839 168.746 64.852 163 80.9716 154.075C97.1186 145.122 111.116 133.247 118.93 117.619C134.54 86.4086 130.414 50.7268 124.476 27.0482Z" fill="white"/>
</svg>
