<svg width="285" height="278" viewBox="0 0 285 278" fill="none" xmlns="http://www.w3.org/2000/svg">
<path d="M142.494 23.1725C146.591 23.1725 149.916 26.4158 149.916 30.412V44.8912C149.916 46.8113 149.134 48.6527 147.742 50.0104C146.35 51.3681 144.462 52.1308 142.494 52.1308C140.526 52.1308 138.638 51.3681 137.246 50.0104C135.854 48.6527 135.072 46.8113 135.072 44.8912V30.412C135.072 26.4158 138.397 23.1725 142.494 23.1725ZM202.006 139.272C202.006 171.179 175.489 197.044 142.779 197.044C110.063 197.044 83.5466 171.179 83.5466 139.272C83.5466 107.36 110.063 81.4945 142.779 81.4945C175.489 81.4945 202.006 107.36 202.006 139.272ZM253.828 146.24C255.797 146.24 257.684 145.477 259.076 144.119C260.468 142.761 261.25 140.92 261.25 139C261.25 137.08 260.468 135.239 259.076 133.881C257.684 132.523 255.797 131.76 253.828 131.76H238.984C237.016 131.76 235.128 132.523 233.736 133.881C232.344 135.239 231.562 137.08 231.562 139C231.562 140.92 232.344 142.761 233.736 144.119C235.128 145.477 237.016 146.24 238.984 146.24H253.828ZM142.494 225.875C146.591 225.875 149.916 229.118 149.916 233.115V247.594C149.916 249.514 149.134 251.355 147.742 252.713C146.35 254.071 144.462 254.833 142.494 254.833C140.526 254.833 138.638 254.071 137.246 252.713C135.854 251.355 135.072 249.514 135.072 247.594V233.115C135.072 229.118 138.397 225.875 142.494 225.875ZM46.0156 146.24C47.984 146.24 49.8718 145.477 51.2637 144.119C52.6556 142.761 53.4375 140.92 53.4375 139C53.4375 137.08 52.6556 135.239 51.2637 133.881C49.8718 132.523 47.984 131.76 46.0156 131.76H31.1719C29.2035 131.76 27.3157 132.523 25.9238 133.881C24.5319 135.239 23.75 137.08 23.75 139C23.75 140.92 24.5319 142.761 25.9238 144.119C27.3157 145.477 29.2035 146.24 31.1719 146.24H46.0156ZM55.6106 54.2447C56.2998 53.5723 57.1181 53.0389 58.0187 52.6749C58.9193 52.311 59.8846 52.1237 60.8594 52.1237C61.8342 52.1237 62.7995 52.311 63.7001 52.6749C64.6006 53.0389 65.4189 53.5723 66.1081 54.2447L80.9519 68.7239C81.6411 69.3963 82.1879 70.1945 82.5609 71.0729C82.934 71.9514 83.126 72.8929 83.126 73.8438C83.126 74.7946 82.934 75.7361 82.5609 76.6146C82.1879 77.493 81.6411 78.2912 80.9519 78.9636C80.2626 79.6359 79.4443 80.1693 78.5437 80.5331C77.6431 80.897 76.6779 81.0843 75.7031 81.0843C74.7283 81.0843 73.7631 80.897 72.8625 80.5331C71.9619 80.1693 71.1436 79.6359 70.4544 78.9636L55.6106 64.4844C54.9212 63.8121 54.3744 63.014 54.0013 62.1355C53.6281 61.257 53.4361 60.3155 53.4361 59.3646C53.4361 58.4137 53.6281 57.4721 54.0013 56.5937C54.3744 55.7152 54.9212 54.917 55.6106 54.2447ZM66.1081 223.761C64.7161 225.119 62.828 225.882 60.8594 225.882C58.8907 225.882 57.0027 225.119 55.6106 223.761C54.2186 222.403 53.4365 220.562 53.4365 218.641C53.4365 216.721 54.2186 214.879 55.6106 213.521L70.4544 199.042C71.1436 198.37 71.9619 197.837 72.8625 197.473C73.7631 197.109 74.7283 196.922 75.7031 196.922C76.6779 196.922 77.6431 197.109 78.5437 197.473C79.4443 197.837 80.2626 198.37 80.9519 199.042C81.6411 199.715 82.1879 200.513 82.5609 201.391C82.934 202.27 83.126 203.211 83.126 204.162C83.126 205.113 82.934 206.054 82.5609 206.933C82.1879 207.811 81.6411 208.61 80.9519 209.282L66.1081 223.761ZM229.389 54.2447C227.998 52.8884 226.111 52.1265 224.144 52.1265C222.176 52.1265 220.289 52.8884 218.898 54.2447L204.054 68.7239C202.662 70.0818 201.88 71.9234 201.88 73.8438C201.88 75.7641 202.662 77.6057 204.054 78.9636C205.446 80.3214 207.334 81.0843 209.303 81.0843C211.271 81.0843 213.159 80.3214 214.552 78.9636L229.395 64.4844C230.085 63.8121 230.632 63.014 231.005 62.1355C231.378 61.257 231.57 60.3155 231.57 59.3646C231.57 58.4137 231.378 57.4721 231.005 56.5937C230.632 55.7152 230.079 54.917 229.389 54.2447ZM218.898 223.761C220.29 225.119 222.178 225.882 224.147 225.882C226.115 225.882 228.003 225.119 229.395 223.761C230.787 222.403 231.569 220.562 231.569 218.641C231.569 216.721 230.787 214.879 229.395 213.521L214.552 199.042C213.862 198.37 213.044 197.837 212.143 197.473C211.243 197.109 210.278 196.922 209.303 196.922C208.328 196.922 207.363 197.109 206.462 197.473C205.562 197.837 204.743 198.37 204.054 199.042C203.365 199.715 202.818 200.513 202.445 201.391C202.072 202.27 201.88 203.211 201.88 204.162C201.88 205.113 202.072 206.054 202.445 206.933C202.818 207.811 203.365 208.61 204.054 209.282L218.898 223.761Z" fill="#EEFF00"/>
</svg>
