<svg width="31" height="31" viewBox="0 0 31 31" fill="none" xmlns="http://www.w3.org/2000/svg">
<path d="M25.31 19.4C25.0922 19.1481 24.8227 18.946 24.5199 18.8075C24.2171 18.669 23.888 18.5973 23.555 18.5973C23.222 18.5973 22.8929 18.669 22.5901 18.8075C22.2873 18.946 22.0178 19.1481 21.8 19.4C20.98 20.21 20.16 21.03 19.35 21.86C19.2738 21.9636 19.1607 22.0339 19.034 22.0562C18.9074 22.0786 18.777 22.0513 18.67 21.98C18.14 21.69 17.57 21.46 17.06 21.14C14.7197 19.6232 12.6452 17.7312 10.92 15.54C10.0192 14.478 9.27501 13.2927 8.70998 12.02C8.64854 11.9144 8.62784 11.7901 8.65178 11.6703C8.67573 11.5506 8.74268 11.4437 8.83999 11.37C9.65999 10.57 10.46 9.75997 11.27 8.93997C11.5343 8.72038 11.7471 8.44525 11.8931 8.13416C12.0391 7.82306 12.1148 7.48364 12.1148 7.13998C12.1148 6.79633 12.0391 6.45688 11.8931 6.14578C11.7471 5.83468 11.5343 5.55955 11.27 5.33997L9.33999 3.40997C8.67999 2.74997 8.01999 2.07997 7.33999 1.40997C7.1204 1.16098 6.85034 0.961574 6.54775 0.824982C6.24516 0.688389 5.91697 0.617737 5.58498 0.617737C5.25299 0.617737 4.9248 0.688389 4.62221 0.824982C4.31963 0.961574 4.04957 1.16098 3.82998 1.40997C2.99998 2.21997 2.20997 3.05995 1.35997 3.85995C0.611634 4.56575 0.163982 5.53272 0.10999 6.55997C0.0387537 8.24467 0.339199 9.92442 0.989995 11.48C2.23727 14.7137 4.03365 17.7077 6.29998 20.33C9.28291 23.9119 12.9955 26.8166 17.19 28.85C19.0539 29.826 21.0936 30.4209 23.19 30.6C23.8922 30.6789 24.6032 30.5895 25.264 30.3391C25.9248 30.0886 26.5164 29.6845 26.99 29.16C27.69 28.37 28.48 27.65 29.23 26.9C29.4894 26.6794 29.6976 26.405 29.8405 26.0959C29.9834 25.7869 30.0574 25.4504 30.0574 25.11C30.0574 24.7695 29.9834 24.4331 29.8405 24.124C29.6976 23.8149 29.4894 23.5406 29.23 23.32C27.9367 22.0133 26.63 20.7066 25.31 19.4Z" fill="white"/>
<path d="M30.5 13.69C27.8962 7.60783 23.0355 2.77223 16.94 0.199997C16.6945 0.108356 16.4228 0.116715 16.1834 0.223312C15.9441 0.329909 15.7561 0.526205 15.66 0.769973C15.6076 0.891956 15.58 1.02315 15.5789 1.1559C15.5777 1.28865 15.603 1.4203 15.6533 1.54317C15.7036 1.66604 15.7778 1.77765 15.8716 1.87154C15.9655 1.96542 16.0771 2.03968 16.2 2.08998C21.8188 4.46381 26.2992 8.92264 28.7 14.53C28.8073 14.7678 29.0033 14.9542 29.2462 15.0495C29.4891 15.1448 29.7596 15.1414 30 15.04C30.1231 14.9861 30.234 14.908 30.3263 14.8103C30.4185 14.7125 30.4901 14.5972 30.5368 14.4712C30.5835 14.3452 30.6042 14.2111 30.5979 14.0769C30.5916 13.9426 30.5583 13.8111 30.5 13.69Z" fill="white"/>
<path d="M15.68 7.51996C19.0858 8.95454 21.8029 11.6537 23.26 15.05C23.3374 15.2175 23.4596 15.3604 23.6132 15.4627C23.7667 15.5651 23.9456 15.623 24.13 15.63C24.265 15.629 24.3982 15.5982 24.52 15.54C24.75 15.4273 24.9279 15.2307 25.0172 14.9907C25.1065 14.7507 25.1004 14.4856 25 14.25C23.3484 10.394 20.2655 7.32907 16.4 5.69998C16.162 5.61548 15.9008 5.62419 15.6689 5.72436C15.437 5.82453 15.2516 6.00872 15.15 6.23996C15.056 6.48046 15.0586 6.74801 15.1574 6.9866C15.2562 7.22519 15.4435 7.41631 15.68 7.51996Z" fill="white"/>
</svg>
