<svg data-v-423bf9ae="" xmlns="http://www.w3.org/2000/svg" viewBox="0 0 520 90" class="iconLeft"><!----><!----><!----><g data-v-423bf9ae="" id="6ece3b68-07c7-4132-aae9-ca58c825d614" fill="white" transform="matrix(6.091370322469708,0,0,6.091370322469708,150.6223140541983,-6.076143455461157)"><path d="M7.54 3.82L7.54 10.78L2.57 3.82L1.17 3.82L1.17 13.15L2.61 13.15L2.61 6.21L7.58 13.15L8.97 13.15L8.97 3.82ZM17.12 9.70C17.12 7.73 15.79 6.36 13.87 6.36C11.89 6.36 10.46 7.89 10.46 9.84C10.46 11.80 11.87 13.31 14.04 13.31C15.18 13.31 16.14 12.92 16.74 12.25L15.76 11.46C15.34 11.94 14.77 12.19 14.03 12.19C12.79 12.19 12.05 11.33 11.94 10.15L17.12 10.15ZM13.87 7.50C14.90 7.50 15.57 8.12 15.72 9.17L12.00 9.17C12.21 8.17 12.89 7.50 13.87 7.50ZM24.41 13.15L21.86 9.70L24.14 6.53L22.53 6.53L21.06 8.74L19.57 6.53L17.98 6.53L20.27 9.71L17.72 13.15L19.35 13.15L21.06 10.68L22.76 13.15ZM28.50 6.53L27.08 6.53L27.08 4.64L25.68 4.64L25.68 6.53L24.81 6.53L24.81 7.67L25.68 7.67L25.68 13.15L27.10 13.15L27.08 7.67L28.50 7.67ZM32.62 3.82L29.85 3.82L29.85 13.15L32.62 13.15C35.88 13.15 37.65 11.10 37.65 8.47C37.65 5.86 35.88 3.82 32.62 3.82ZM32.39 11.94L31.34 11.94L31.34 5.03L32.39 5.03C34.90 5.03 36.11 6.39 36.11 8.47C36.11 10.57 34.90 11.94 32.39 11.94ZM42.23 6.36C41.45 6.36 40.92 6.74 40.54 7.41L40.37 6.53L39.14 6.53L39.14 13.15L40.56 13.15L40.56 9.70C40.56 8.62 41.13 7.66 42.16 7.66C42.39 7.66 42.61 7.70 42.80 7.79L43.23 6.58C43.05 6.47 42.67 6.36 42.23 6.36ZM44.96 5.26C45.47 5.26 45.88 4.86 45.88 4.36C45.88 3.86 45.47 3.46 44.96 3.46C44.46 3.46 44.06 3.86 44.06 4.36C44.06 4.86 44.46 5.26 44.96 5.26ZM44.29 13.15L45.67 13.15L45.67 6.53L44.29 6.53ZM52.11 6.53L50.18 11.48L48.24 6.53L46.74 6.53L49.60 13.15L50.76 13.15L53.62 6.53ZM60.54 9.70C60.54 7.73 59.21 6.36 57.28 6.36C55.30 6.36 53.87 7.89 53.87 9.84C53.87 11.80 55.29 13.31 57.46 13.31C58.60 13.31 59.56 12.92 60.16 12.25L59.18 11.46C58.76 11.94 58.19 12.19 57.44 12.19C56.20 12.19 55.46 11.33 55.36 10.15L60.54 10.15ZM57.28 7.50C58.32 7.50 58.99 8.12 59.14 9.17L55.42 9.17C55.62 8.17 56.31 7.50 57.28 7.50Z"></path></g><!----><g data-v-423bf9ae="" id="32b9661d-38e3-4296-abc6-f9ee62770a50" transform="matrix(1.499950029130601,0,0,1.499950029130601,-5.874780986975239,-28.49905055348141)" stroke="none" fill="white"><path d="M94.699 49.569c-.173-.479-.343-.486-.416-.463-.137-3.059-.67-4.314-.67-4.314s-3.873-4.456-4.819-5.311c-.947-.854-1.979-2.472-1.895-2.563.084-.092 1.226-.916 1.922-.733.697.183 2.257.031 4.096-.549s1.587-2.534 1.587-2.534-.584-2.167-2.841-2.716c-2.256-.55-4.039-.427-4.653.122s-.026 3.021-.026 3.021.194.489-.475.519c-.668.031-1.169-.733-1.169-.733-.947-3.083-6.408-10.818-7.605-11.721-.891-.671-1.778-.949-2.423-.977a.327.327 0 00-.344.255C70.733 19.407 51.567 19 51.567 19h-3.269s-19.166.407-23.4 1.873a.327.327 0 00-.343-.255c-.646.028-1.533.306-2.424.977-1.198.902-6.658 8.638-7.604 11.721 0 0-.502.764-1.17.733-.668-.03-.474-.519-.474-.519s.588-2.472-.026-3.021c-.614-.549-2.398-.672-4.654-.123-2.257.55-2.842 2.717-2.842 2.717s-.251 1.953 1.588 2.534c1.839.58 3.398.732 4.095.549.697-.183 1.839.641 1.923.733.083.091-.947 1.709-1.895 2.563-.947.856-4.819 5.312-4.819 5.312s-.535 1.259-.671 4.328c-.043-.027-.242-.11-.443.449-.966 2.767-1.226 26.574-1.114 27.959.111 1.384.965 1.384.965 1.384s9.602.198 13 0c.367-.022.854-.122.854-1.344v-3.379c.838.013 1.698.076 2.563.212a3.21 3.21 0 011.198.458l8.97-.031 18.358.215 18.357-.215 8.97.031s.515-.353 1.198-.458a18.52 18.52 0 012.534-.212v3.379c0 1.222.487 1.321.854 1.344 3.398.198 12.999 0 12.999 0s.854 0 .967-1.384c.113-1.386-.147-25.194-1.113-27.961zm-1.52 12.327l-1.152 7.751-.892-.182 2.044-7.569zm-3.567.651s.521-.04.261.692c-1.746 6.146-7.465 6.389-7.465 6.389s-5.609.042-6.241 0c-.632-.04-.186-.772-.186-.772s2.822-4.721 3.083-5.29c.259-.57.78-.57.78-.57l9.768-.449zm-3.063-20.166c.706.232 2.841 1.343 1.978 7.753-.659 2.95-1.693 3.669-4.076 3.908-2.113.211-10.409.426-10.409.426s-.864.061-.502-.946c.362-1.008 1.393-3.114 1.393-3.114s.655-1.469 3.231-2.411c1.421-.518 2.35-.896 2.498-1.111.202-.295-.325.501.733-1.055 1.058-1.557 3.296-4.06 5.154-3.45zM22.828 22.602s14.712-1.729 27.004-1.739h.102c12.293.01 27.004 1.739 27.004 1.739s4.039 5.281 6.714 12.759c-17.216-1.077-32.354-.987-33.718-.977v.001l-.051-.001-.051.001v-.001c-1.363-.01-16.502-.1-33.717.977 2.674-7.479 6.713-12.759 6.713-12.759zm9.797 32.091c-2.526-.448-3.12-2.158-3.12-2.158l-1.449-4.158s-.484-1.862 1.375-2.028c2.336-.209 17.953-1.007 20.452-.938 2.5-.069 18.115.728 20.452.938 1.859.166 1.375 2.028 1.375 2.028l-1.448 4.158s-.595 1.71-3.12 2.158c-2.404.426-15.914.852-17.208.892v.003l-.051-.002-.051.002v-.003c-1.295-.04-14.804-.466-17.207-.892zM13.218 42.381c1.856-.61 4.094 1.893 5.153 3.449 1.059 1.557.531.76.733 1.055.148.216 1.077.594 2.498 1.111 2.576.942 3.231 2.411 3.231 2.411s1.031 2.106 1.393 3.114c.362 1.007-.502.946-.502.946s-8.294-.215-10.409-.426c-2.383-.239-3.417-.958-4.076-3.908-.863-6.408 1.271-7.52 1.979-7.752zm-3.065 20.166l9.769.448s.52 0 .779.57c.26.569 3.083 5.29 3.083 5.29s.445.732-.186.772c-.631.042-6.24 0-6.24 0s-5.72-.242-7.466-6.389c-.259-.731.261-.691.261-.691zM8.63 69.466l-.891.182-1.152-7.751 2.043 7.569zm17.049 3.013c-.334 0-8.8-.204-8.8-.204s-3.717-.082-4.794-1.506c-.401-.631.223-.57.223-.57s2.118.652 5.126.773c3.008.122 7.8.244 7.8.244s.594 0 .892.57c.295.57-.113.693-.447.693zm45.214-.383c-.344.395-.817.383-.817.383H29.691s-.475.012-.818-.383c-.409-.47-.297-.764.186-.758l20.824.244 20.824-.244c.483-.006.596.288.186.758zm1.522-2.344l-22.481.444v.002l-.051-.002-.051.002v-.002l-22.482-.444s-.51.12-1.034-.53c-.525-.65-3.312-5.656-3.312-5.656s-.148-.585.408-.57l26.47.69 26.47-.69c.557-.015.409.57.409.57s-2.786 5.006-3.311 5.656c-.524.65-1.035.53-1.035.53zm1.672 2.727c-.335 0-.742-.122-.445-.692s.892-.57.892-.57 4.79-.122 7.801-.244c3.007-.121 5.124-.773 5.124-.773s.624-.061.224.57c-1.077 1.424-4.794 1.506-4.794 1.506s-8.468.203-8.802.203z"></path><ellipse cx="80.717" cy="66.23" rx="1.801" ry="1.975"></ellipse><ellipse cx="14.592" cy="65.661" rx="1.653" ry="1.811"></ellipse><ellipse cx="85.175" cy="65.661" rx="1.652" ry="1.811"></ellipse><ellipse cx="19.049" cy="66.231" rx="1.801" ry="1.974"></ellipse></g><!----></svg>