<svg data-v-423bf9ae="" xmlns="http://www.w3.org/2000/svg" viewBox="0 0 673 90" class="iconLeft"><!----><!----><!----><g data-v-423bf9ae="" id="a0821625-c824-46ad-826c-d20c1b83b81b" fill="#FCFCFC" transform="matrix(6.091370322469708,0,0,6.091370322469708,300.2560405729728,-6.076143455461157)"><path d="M7.54 3.82L7.54 10.78L2.57 3.82L1.17 3.82L1.17 13.15L2.61 13.15L2.61 6.21L7.58 13.15L8.97 13.15L8.97 3.82ZM17.12 9.70C17.12 7.73 15.79 6.36 13.87 6.36C11.87 6.36 10.46 7.89 10.46 9.84C10.46 11.80 11.86 13.31 14.03 13.31C15.18 13.31 16.14 12.92 16.74 12.25L15.76 11.46C15.34 11.94 14.77 12.19 14.01 12.19C12.77 12.19 12.05 11.33 11.94 10.15L17.12 10.15ZM13.87 7.50C14.90 7.50 15.57 8.12 15.72 9.17L12.00 9.17C12.21 8.17 12.89 7.50 13.87 7.50ZM24.40 13.15L21.85 9.70L24.12 6.53L22.52 6.53L21.04 8.74L19.56 6.53L17.97 6.53L20.26 9.71L17.70 13.15L19.34 13.15L21.04 10.68L22.75 13.15ZM28.41 11.93C28.32 11.99 28.09 12.06 27.81 12.06C27.36 12.06 27.08 11.80 27.08 11.20L27.08 7.67L28.48 7.67L28.48 6.53L27.08 6.53L27.08 4.64L25.67 4.64L25.67 6.53L24.79 6.53L24.79 7.67L25.67 7.67L25.67 11.32C25.67 12.91 26.66 13.27 27.48 13.27C28 13.27 28.42 13.17 28.60 13.08ZM33.22 3.82L30.07 3.82L30.07 13.15L33.22 13.15C36.47 13.15 38.25 11.10 38.25 8.47C38.25 5.86 36.47 3.82 33.22 3.82ZM32.99 11.94L31.56 11.94L31.56 5.03L32.99 5.03C35.48 5.03 36.71 6.39 36.71 8.47C36.71 10.57 35.48 11.94 32.99 11.94ZM42.83 6.36C42.04 6.36 41.52 6.74 41.14 7.41L40.96 6.53L39.74 6.53L39.74 13.15L41.15 13.15L41.15 9.70C41.15 8.62 41.72 7.66 42.76 7.66C42.99 7.66 43.21 7.70 43.40 7.79L43.82 6.58C43.65 6.47 43.27 6.36 42.83 6.36ZM45.57 5.26C46.08 5.26 46.49 4.86 46.49 4.36C46.49 3.86 46.08 3.46 45.57 3.46C45.06 3.46 44.65 3.86 44.65 4.36C44.65 4.86 45.06 5.26 45.57 5.26ZM44.89 13.15L46.27 13.15L46.27 6.53L44.89 6.53ZM52.70 6.53L50.78 11.48L48.84 6.53L47.34 6.53L50.20 13.15L51.36 13.15L54.22 6.53ZM61.13 9.70C61.13 7.73 59.81 6.36 57.88 6.36C55.88 6.36 54.47 7.89 54.47 9.84C54.47 11.80 55.87 13.31 58.04 13.31C59.19 13.31 60.16 12.92 60.75 12.25L59.78 11.46C59.35 11.94 58.79 12.19 58.03 12.19C56.79 12.19 56.06 11.33 55.96 10.15L61.13 10.15ZM57.88 7.50C58.92 7.50 59.59 8.12 59.73 9.17L56.01 9.17C56.22 8.17 56.90 7.50 57.88 7.50Z"></path></g><!----><g data-v-423bf9ae="" id="fa0e07a3-53b0-48e1-ad9d-9e2a3ff3ab43" transform="matrix(3.193105597871566,0,0,3.193105597871566,-15.656993561979249,-113.74406453492443)" stroke="none" fill="#086CF9"><path d="M19.145 51.587a6.252 6.252 0 100 12.504 6.252 6.252 0 000-12.504zm-.001 1.041a5.21 5.21 0 100 10.421 5.21 5.21 0 000-10.421zm4.378 7.407a5.03 5.03 0 01-.135.25c-.271-.26-1.414-1.35-1.727-1.568-.357-.247-.805-.24-1.063.097a.71.71 0 00-.159.433c0 .224.124.447.377.636.363.274 1.686.975 2.033 1.158a3.426 3.426 0 01-.173.189c-.273-.182-1.582-1.03-2.07-.836-.523.209-.498 2.103-.494 2.247-.095.019-.19.035-.287.049.018-.169.203-2.002.18-2.415-.025-.433-.306-.783-.73-.779-.432.004-.71.296-.71.805v.025c.01.517.346 2.354.355 2.406a2.98 2.98 0 01-.232-.017c-.032-.255-.268-1.987-.751-2.233-.468-.238-1.723.849-1.976 1.076a4.764 4.764 0 01-.294-.274c.253-.158 1.718-1.083 2.016-1.343.327-.285.431-.721.167-1.054-.145-.183-.329-.28-.531-.28-.177 0-.369.075-.559.229-.386.312-1.547 1.603-1.672 1.744a3.946 3.946 0 01-.132-.204c.219-.201 1.381-1.298 1.305-1.824-.074-.515-1.656-.912-2.007-.994.005-.095.014-.189.024-.283.314.11 1.858.65 2.241.719.426.078.832-.113.928-.527a.836.836 0 00.022-.188c0-.338-.229-.6-.663-.695-.447-.099-1.953-.193-2.334-.214a4.38 4.38 0 01.083-.244c.321.053 1.868.284 2.23-.094.363-.378-.307-1.884-.454-2.2.075-.054.152-.105.23-.153.134.381.652 1.83.831 2.16.206.381.61.578.991.392.261-.126.404-.339.404-.606 0-.136-.037-.287-.117-.447-.195-.396-1.015-1.557-1.271-1.918.073-.028.146-.054.221-.078.242.405.958 1.534 1.437 1.571.478.036 1.136-1.198 1.359-1.647.09.024.177.05.263.079-.255.411-.995 1.612-1.134 1.94-.169.4-.071.837.312 1.02.112.053.223.08.33.08.271 0 .513-.172.673-.513.18-.385.556-1.67.69-2.141.072.041.144.083.213.128-.166.426-.63 1.709-.36 2.113.283.427 1.834.124 2.221.042.039.086.075.174.108.263-.351.036-1.951.209-2.324.31-.418.112-.703.459-.612.873.077.35.326.556.692.556.082 0 .172-.01.265-.032.453-.103 1.899-.684 2.219-.814.011.067.022.134.03.203-.398.135-1.739.623-1.878 1.1-.141.493 1.079 1.474 1.399 1.722zm-4.701-3.151a.267.267 0 11-.534 0 .267.267 0 01.534 0zm1.245 0a.267.267 0 11-.534 0 .267.267 0 01.534 0zm-1.635 1.201a.267.267 0 11-.534 0 .267.267 0 01.534 0zm2.034 0a.267.267 0 11-.534 0 .267.267 0 01.534 0zm-1.004.731a.267.267 0 11-.534 0 .267.267 0 01.534 0zm55.17-7.229a6.252 6.252 0 100 12.504 6.252 6.252 0 100-12.504zm0 1.041a5.21 5.21 0 100 10.421 5.21 5.21 0 000-10.421zm4.378 7.407a5.03 5.03 0 01-.135.25c-.271-.26-1.414-1.35-1.727-1.568-.357-.247-.805-.24-1.063.097a.71.71 0 00-.159.433c0 .224.124.447.377.636.363.274 1.686.975 2.033 1.158a3.426 3.426 0 01-.173.189c-.273-.182-1.582-1.03-2.07-.836-.523.209-.498 2.103-.494 2.247-.095.019-.19.035-.287.049.018-.169.203-2.002.18-2.415-.025-.433-.306-.783-.73-.779-.432.004-.71.296-.71.805v.025c.01.517.346 2.354.355 2.406a2.98 2.98 0 01-.232-.017c-.032-.255-.268-1.987-.751-2.233-.468-.238-1.723.849-1.976 1.076a4.764 4.764 0 01-.294-.274c.253-.158 1.718-1.083 2.016-1.343.327-.285.431-.721.167-1.054-.145-.183-.329-.28-.531-.28-.177 0-.369.075-.559.229-.386.312-1.547 1.603-1.672 1.744a3.946 3.946 0 01-.132-.204c.219-.201 1.381-1.298 1.305-1.824-.074-.515-1.656-.912-2.007-.994.005-.095.014-.189.024-.283.314.11 1.858.65 2.241.719.426.078.832-.113.928-.527a.836.836 0 00.022-.188c0-.338-.229-.6-.663-.695-.447-.099-1.953-.193-2.334-.214a4.38 4.38 0 01.083-.244c.321.053 1.868.284 2.23-.094.363-.378-.307-1.884-.454-2.2.075-.054.152-.105.23-.153.134.381.652 1.83.831 2.16.206.381.61.578.991.392.261-.126.404-.339.404-.606 0-.136-.037-.287-.117-.447-.195-.396-1.015-1.557-1.271-1.918.073-.028.146-.054.221-.078.242.405.958 1.534 1.437 1.571.478.036 1.136-1.198 1.359-1.647.09.024.177.05.263.079-.255.411-.995 1.612-1.134 1.94-.169.4-.071.837.312 1.02.112.053.223.08.33.08.271 0 .513-.172.673-.513.18-.385.556-1.67.69-2.141.072.041.144.083.213.128-.166.426-.63 1.709-.36 2.113.283.427 1.834.124 2.221.042.039.086.075.174.108.263-.351.036-1.951.209-2.324.31-.418.112-.703.459-.612.873.077.35.326.556.692.556.082 0 .172-.01.265-.032.453-.103 1.899-.684 2.219-.814.011.067.022.134.03.203-.398.135-1.739.623-1.878 1.1-.141.493 1.079 1.474 1.399 1.722zm-4.701-3.151a.267.267 0 11-.534 0 .267.267 0 01.534 0zm1.245 0a.267.267 0 11-.534 0 .267.267 0 01.534 0zm-1.635 1.201a.267.267 0 11-.534 0 .267.267 0 01.534 0zm2.034 0a.267.267 0 11-.534 0 .267.267 0 01.534 0zm-1.004.731a.267.267 0 11-.534 0 .267.267 0 01.534 0zm-.91-8.229c-6.628 0-7.044 7.218-7.044 7.218l-.139 2.429-19.571.104-20.3.573-.104-.468s.321-9.395-7.565-9.395c-8.953 0-7.253 10.055-7.253 10.055s-4.251-.59-4.633-.694c-.382-.104-2.204-.755-2.273-.876-.069-.121.217-.364.156-.494S5 59.026 5 58.696s.659-.215.703-.388c.043-.174.139-1.839.078-2.004-.061-.165-.317-.048-.49-.213s-.194-1.407-.082-2.208c0 0 .538-.356.729-.547.191-.191 1.544-3.245 1.588-3.566.043-.321-.607-.531-.573-.817.035-.286 1.061-.771 1.061-.771s-.046-.286-.046-.429c0-.143.202-.995.293-1.106.091-.111.267-.104.27.062.003.166-.264.869-.264 1.044 0 .176-.007.345-.007.345-.048-.154 6.671-1.802 8.166-1.937 1.477-.133 9.838-1.536 10.671-1.596s2.412.139 2.629.052c.217-.087 11.267-6.344 11.972-6.741.705-.397 1.483-.547 1.483-.547s1.692-.481 3.149-.573c1.457-.091 7.547-.586 8.875-.599 1.327-.013 8.97.087 10.046.182s2.672.442 2.811.386c.139-.056.113-.273.312-.325s.802.16.937.121c.134-.039.241-.449.416-.547.176-.098.416-.085.468 0 .052.085-.312.846-.182 1.067.059.098.586.163.625.234s-.117.247 0 .312 12.201 5.156 12.31 5.361c.082.155.087-.226.234-.286.147-.061 4.112.503 4.711.494.599-.009 2.811-.293 3.019-.26s.566.156.625.442c.059.286-.254.488-.182.781s.746 1.206.946 1.683.98 3.288.98 3.288.174 1.258.312 1.562 1.041.865 1.119 1.093c.078.228.319 3.025.286 3.461s-2.089 2.095-2.681 2.316c-.592.221-10.462 2.004-10.462 2.004s.832-8.939-7.817-8.939zm-66.149.29c-.182.117-1.054 2.407-1.054 2.407s.574-.214.82-.39c.246-.177.727-.558 1.132-.625.406-.067 1.562-.208 2.29-.677s2.681-2.303 2.681-2.303c-.335-.262-.403-.403-1.275-.481s-2.675.753-3.852 1.731c0 0-.56.221-.742.338zm3.088 2.312c-.39.234-.85.92-.85.92s1.718-.217 1.987-.39c.269-.174.772-.98.772-.98s-1.518.216-1.909.45zm-4.402 3.518c-.043.195.091.638.091.638s.711-.273 1.037-.2c.325.074.82.876.772.941s-.529.169-.625.156c-.095-.013-.139-.527-.325-.586s-.768.091-.768.091-.074.769.143.873c.217.104 2.238.213 2.412-.095.174-.308-1.097-1.943-1.332-2.026-.234-.082-1.362.013-1.405.208zm45.181-12.381c6.112-.449 22.3-.894 22.3-.894s-.179-.312-1.651-1.648c-1.472-1.336-4.038-3.14-7.502-4.112-3.536-.677-6.066-.555-6.066-.555s-2.654-.153-6.331.05l-.75 7.159zm.37-7.148a62.642 62.642 0 00-4.626.433c-3.722.521-4.038.724-5.427 1.345-1.388.62-5.964 3.261-6.476 3.678-.512.418-.824.686-.824.686s1.521.008 1.86.159c.339.152.504.38.568.497.063.117.206 1.434.206 1.434l.009.191s7.857-.806 13.956-1.259l.754-7.164zm-21.724 9.509s1.445-.247 2.557-.306c1.112-.059 2.32-.059 2.32-.059v-.306s-1.553-.02-1.547-.078c.007-.059.088-.15 0-.221-.088-.072-.176-.117-.224-.241-.047-.124.102-1.249.102-1.249-.863.425-2.005 1.385-3.208 2.46zm18.738.508c-.684.059 2.024-.117 2.024-.117s-.081-.361-.381-.504c-.299-.143-1.174-.159-2.105.133s-1.646.755-1.646.755 2.792-.327 2.108-.267zm-1.425 1.067s1.308.039 1.737 0 .755-.02 1.126-.215c.371-.195.651-.521.651-.521s-1.952.078-2.72.26c-.768.182-.911.475-.911.475h.117zm20.094-2.428c-.684.055 2.024-.109 2.024-.109s-.081-.336-.381-.47c-.299-.133-1.174-.148-2.105.124-.93.273-1.646.703-1.646.703s2.792-.304 2.108-.248zm-1.425.993s1.308.036 1.737 0c.429-.036.755-.018 1.126-.2s.651-.485.651-.485-1.952.073-2.72.242c-.768.17-.911.442-.911.442h.117zm25.378-.837c-.104-.124-.455-.344-.781-.4s-3.156-.173-3.969.087c-.813.26-1.269.606-1.197.995.072.389 2.501 1.968 3.393 2.022.892.054 3.313.022 3.4-.141s-.428-1.296-.428-1.296-3.893.117-4.153.069c-.26-.049-.501-.297-.592-.384s-.124-.27-.039-.379c.085-.108 4.538-.052 4.538-.052s-.068-.397-.172-.521z" clip-rule="evenodd"></path></g><!----></svg>