<svg width="33" height="24" viewBox="0 0 33 24" fill="none" xmlns="http://www.w3.org/2000/svg">
<path d="M28.67 0.910034H4.66998C3.60912 0.910034 2.5917 1.33146 1.84155 2.0816C1.09141 2.83175 0.669983 3.84917 0.669983 4.91003V19.91C0.669983 20.9709 1.09141 21.9883 1.84155 22.7385C2.5917 23.4886 3.60912 23.91 4.66998 23.91H28.67C29.7308 23.91 30.7483 23.4886 31.4984 22.7385C32.2486 21.9883 32.67 20.9709 32.67 19.91V4.91003C32.67 3.84917 32.2486 2.83175 31.4984 2.0816C30.7483 1.33146 29.7308 0.910034 28.67 0.910034ZM30.67 19.91C30.67 20.4405 30.4593 20.9492 30.0842 21.3242C29.7091 21.6993 29.2004 21.91 28.67 21.91H4.66998C4.13955 21.91 3.63084 21.6993 3.25577 21.3242C2.8807 20.9492 2.66998 20.4405 2.66998 19.91V4.91003C2.66998 4.3796 2.8807 3.87089 3.25577 3.49582C3.63084 3.12075 4.13955 2.91003 4.66998 2.91003H28.67C29.2004 2.91003 29.7091 3.12075 30.0842 3.49582C30.4593 3.87089 30.67 4.3796 30.67 4.91003V19.91Z" fill="white"/>
<path d="M28.44 6.28003C28.3567 6.17804 28.2542 6.09349 28.1382 6.03123C28.0222 5.96897 27.895 5.93023 27.764 5.91722C27.633 5.90421 27.5008 5.91719 27.3748 5.95543C27.2488 5.99366 27.1316 6.0564 27.03 6.14003L16.67 14.62L6.29997 6.14003C6.20023 6.04675 6.08243 5.97489 5.95384 5.92888C5.82526 5.88287 5.68862 5.86369 5.55234 5.87251C5.41606 5.88133 5.28303 5.91797 5.16145 5.98018C5.03988 6.04238 4.93233 6.12883 4.84545 6.23419C4.75856 6.33955 4.69418 6.46159 4.65627 6.59279C4.61835 6.72398 4.6077 6.86156 4.62499 6.99702C4.64227 7.13249 4.68713 7.26298 4.75678 7.38045C4.82643 7.49791 4.91941 7.59986 5.02997 7.68002L16.03 16.68C16.2099 16.8291 16.4363 16.9105 16.67 16.91C16.9002 16.9082 17.1227 16.8269 17.3 16.68L28.3 7.68002C28.503 7.51216 28.6316 7.27096 28.6578 7.00882C28.6841 6.74668 28.6058 6.48478 28.44 6.28003Z" fill="white"/>
<path d="M24.37 14.2C24.1826 14.0138 23.9292 13.9092 23.665 13.9092C23.4008 13.9092 23.1474 14.0138 22.96 14.2C22.8663 14.293 22.7919 14.4036 22.7411 14.5255C22.6903 14.6473 22.6642 14.778 22.6642 14.91C22.6642 15.042 22.6903 15.1727 22.7411 15.2946C22.7919 15.4165 22.8663 15.5271 22.96 15.62L26.96 19.62C27.0532 19.7126 27.1638 19.7859 27.2854 19.8358C27.4069 19.8856 27.5371 19.911 27.6685 19.9106C27.7999 19.9101 27.9299 19.8838 28.0511 19.8331C28.1724 19.7824 28.2824 19.7083 28.375 19.615C28.4676 19.5218 28.5409 19.4112 28.5907 19.2897C28.6406 19.1681 28.666 19.0379 28.6655 18.9065C28.6651 18.7751 28.6387 18.6451 28.588 18.5239C28.5373 18.4026 28.4632 18.2926 28.37 18.2L24.37 14.2Z" fill="white"/>
<path d="M8.99998 14.2L4.99998 18.2C4.81167 18.387 4.70535 18.6411 4.70441 18.9065C4.70348 19.1719 4.80799 19.4267 4.99497 19.615C5.18195 19.8033 5.43607 19.9096 5.70144 19.9106C5.9668 19.9115 6.22168 19.807 6.40998 19.62L10.41 15.62C10.5037 15.5271 10.5781 15.4165 10.6289 15.2946C10.6796 15.1727 10.7058 15.042 10.7058 14.91C10.7058 14.778 10.6796 14.6473 10.6289 14.5255C10.5781 14.4036 10.5037 14.293 10.41 14.2C10.2226 14.0138 9.96916 13.9092 9.70498 13.9092C9.44079 13.9092 9.18734 14.0138 8.99998 14.2Z" fill="white"/>
</svg>
